Coordinates
version=1
nRows=10
nColumns=33
inDegrees=yes

Units are S.I. units (second, meters, Newtons, ...)
Angles are in degrees.

endheader
time	ground_thorax_rot_x	ground_thorax_rot_y	ground_thorax_rot_z	ground_thorax_tx	ground_thorax_ty	ground_thorax_tz	clav_prot_r	clav_elev_r	scapula_abduction_r	scapula_elevation_r	scapula_upward_rot_r	scapula_winging_r	shoulder_elv_r	plane_of_elev_r	axial_rot_r	elbow_flexion_r	pro_sup_r	wrist_flex_r	wrist_dev_r	clav_prot_l	clav_elev_l	scapula_abduction_l	scapula_elevation_l	scapula_upward_rot_l	scapula_winging_l	shoulder_elv_l	plane_of_elev_l	axial_rot_l	elbow_flexion_l	pro_sup_l	wrist_flex_l	wrist_dev_l
      1.15000000	      1.53233852	      5.38150082	     -4.01543893	     -0.15273293	      1.00446420	      0.00983092	    -21.13681165	     -9.22836245	    -27.31267437	     -5.94257628	     10.21705262	      2.03372279	     63.80890602	    -48.56912783	     56.29674303	     88.73305874	     16.37009835	     22.88451634	     -2.67530744	     -0.76631330	     -2.01504172	     -1.79086899	     -4.97810289	     -2.25190684	      0.65411723	     44.40642724	    -52.78785365	    -18.86475271	     88.04789736	     12.30057138	     -5.68772268	    -18.57693518
      1.16000000	      1.53530388	      5.40657324	     -3.77256250	     -0.15294068	      1.00458344	      0.00972861	    -21.13474049	     -9.30842086	    -27.25249262	     -6.03620773	     10.27739922	      2.05383342	     63.79377808	    -48.45477741	     56.22466535	     88.80619406	     16.35532807	     22.88561281	     -2.67804592	     -0.76463909	     -2.05473505	     -1.81916215	     -4.92069788	     -2.20123310	      0.65868754	     44.42091757	    -52.68720172	    -18.85874042	     88.09660636	     12.29492118	     -5.68618543	    -18.57790154
      1.17000000	      1.55524431	      5.40155975	     -4.14268824	     -0.15285591	      1.00491588	      0.00976882	    -21.29458950	     -9.75013413	    -27.42606532	     -6.45287197	     10.28457325	      2.25091274	     63.21881223	    -48.10951772	     55.19135628	     88.96854979	     15.84607358	     21.83589258	     -1.86243584	     -0.87168673	     -2.30388868	     -1.71106478	     -4.66827340	     -2.14133679	      0.59063273	     44.51650904	    -52.22021778	    -18.58385688	     88.28057162	     12.03942895	     -5.25872522	    -17.95961929
      1.18000000	      1.41505209	      5.37875536	     -3.80842974	     -0.15337848	      1.00469939	      0.00977565	    -21.16886506	     -9.55528166	    -27.38526038	     -6.19307152	     10.06644832	      2.21674146	     62.56026939	    -47.60110303	     54.23401826	     89.16298984	     15.01203181	     19.91474661	     -0.03197119	     -0.82608506	     -2.16985109	     -1.74760240	     -4.80679413	     -2.18016633	      0.62301209	     44.80940597	    -52.07231730	    -18.73296578	     88.72164346	     11.60286266	     -4.17374591	    -16.73949048
      1.19000000	      1.56594151	      5.40555618	     -3.89141432	     -0.15360304	      1.00489099	      0.00965102	    -21.15855539	     -9.78787235	    -27.26676216	     -6.43698023	     10.15950970	      2.30419137	     62.47207258	    -47.25859190	     53.86576977	     89.21722468	     14.86438630	     19.64251464	      0.22062812	     -0.84289088	     -2.38202070	     -1.77963489	     -4.59677785	     -2.14111668	      0.59459277	     44.74356022	    -51.61834867	    -18.60801488	     88.74713534	     11.51661585	     -3.98774804	    -16.47904830
      1.20000000	      1.51506034	      5.37963020	     -3.74954694	     -0.15387648	      1.00469706	      0.00971511	    -21.11319944	     -9.71607300	    -27.33662478	     -6.29307370	      9.93599500	      2.32709692	     61.74725622	    -46.66422130	     52.57580142	     89.45250727	     13.98240698	     17.71648525	      2.03992298	     -0.86962539	     -2.35993543	     -1.69237917	     -4.65000003	     -2.22300097	      0.56018671	     44.89450232	    -51.19209451	    -18.36187604	     89.17229555	     11.01113687	     -2.62328340	    -14.93141696
      1.21000000	      1.55545227	      5.35719891	     -3.79085650	     -0.15395844	      1.00513756	      0.00967333	    -21.15274626	    -10.06655060	    -27.31572248	     -6.62629467	      9.96325609	      2.48393900	     61.43909069	    -46.26607912	     52.01481944	     89.37758710	     13.76903606	     17.24190743	      2.40031021	     -0.92285739	     -2.58564239	     -1.65329996	     -4.43611122	     -2.20512850	      0.50865390	     44.86955535	    -50.74960232	    -18.04791198	     89.15594303	     10.88172206	     -2.32142308	    -14.49864020
      1.22000000	      1.50013525	      5.40110819	     -3.68349543	     -0.15438092	      1.00475524	      0.00958316	    -21.03418468	    -10.00200972	    -27.25330777	     -6.48837753	      9.75521144	      2.50618476	     60.74714538	    -45.60988052	     50.85754781	     89.45194330	     13.02113722	     15.53558820	      3.89456318	     -0.86084643	     -2.52424865	     -1.72852331	     -4.51485750	     -2.25937369	      0.53386392	     45.01114350	    -50.19237322	    -17.87552697	     89.60870948	     10.45145183	     -1.02055263	    -13.06624823
      1.23000000	      1.55873395	      5.42480471	     -3.73037236	     -0.15445666	      1.00513650	      0.00951001	    -21.06950791	    -10.34346496	    -27.25009603	     -6.80310452	      9.74738870	      2.67265810	     60.35998255	    -45.16224760	     50.13392558	     89.26104772	     12.73848787	     14.85943587	      4.38499527	     -0.91132410	     -2.76538754	     -1.69243079	     -4.29054680	     -2.25148780	      0.47313878	     44.96631328	    -49.63102051	    -17.49096495	     89.63211408	     10.27557897	     -0.58977613	    -12.46111050
      1.24000000	      1.49842214	      5.47683417	     -3.72024684	     -0.15477581	      1.00514912	      0.00949470	    -21.00899847	    -10.49388602	    -27.22782750	     -6.87519764	      9.56208150	      2.79151276	     59.61173694	    -44.51849975	     48.96605903	     89.09014779	     12.13019348	     13.39597271	      5.51396475	     -0.86443044	     -2.81598281	     -1.78273873	     -4.24945919	     -2.26411370	      0.48598750	     45.06614109	    -48.97538521	    -17.20940140	     89.82331501	      9.90983417	      0.40402570	    -11.25401669
